<svg width="134" height="82" viewBox="0 0 134 82" fill="none" xmlns="http://www.w3.org/2000/svg">
<path fill-rule="evenodd" clip-rule="evenodd" d="M16.5 0.5L0.5 82L123 72L133.5 9L16.5 0.5ZM51.4928 62V24.04H56.2768V50.872L66.8328 37.508H72.6048L64.2848 47.804L74.1648 62H68.5488L61.1128 51.236H56.2768V62H51.4928ZM12.572 62L28.432 25.236H31.344L47.204 62H41.744L38.572 54.512H21.204L17.98 62H12.572ZM23.076 49.936H36.7L29.888 34.024L23.076 49.936ZM84.8138 37.508V29.136H82.7338L75.0378 41.876H80.0298V62H84.8138V41.876H92.9778V37.508H84.8138ZM118.401 49.676C118.401 50.3 118.349 50.872 118.245 51.496H98.7973C99.1093 53.576 99.8893 55.188 101.241 56.436C102.541 57.684 104.205 58.308 106.285 58.308C107.845 58.308 109.301 57.996 110.549 57.268C111.797 56.54 112.785 55.552 113.513 54.2L117.673 56.072C116.633 58.204 115.125 59.816 113.149 60.96C111.173 62.104 108.885 62.676 106.285 62.676C103.789 62.676 101.605 62.156 99.7333 61.012C97.8613 59.868 96.4053 58.308 95.3653 56.332C94.3253 54.356 93.8573 52.172 93.8573 49.728C93.8573 47.336 94.3253 45.152 95.3653 43.176C96.4053 41.2 97.8613 39.692 99.7333 38.548C101.605 37.404 103.789 36.832 106.285 36.832C108.729 36.832 110.861 37.404 112.733 38.548C114.553 39.692 115.957 41.2 116.945 43.124C117.881 45.1 118.401 47.284 118.401 49.676ZM106.285 41.148C104.309 41.148 102.645 41.772 101.345 42.968C100.045 44.164 99.2133 45.724 98.9013 47.596H113.409C113.097 45.62 112.317 44.06 111.121 42.916C109.873 41.772 108.261 41.148 106.285 41.148Z" fill="#E84311"/>
</svg>
