<?xml version="1.0" standalone="no"?>
<!DOCTYPE svg PUBLIC "-//W3C//DTD SVG 20010904//EN"
 "http://www.w3.org/TR/2001/REC-SVG-20010904/DTD/svg10.dtd">
<svg version="1.0" xmlns="http://www.w3.org/2000/svg"
 width="512.000000pt" height="512.000000pt" viewBox="0 0 512.000000 512.000000"
 preserveAspectRatio="xMidYMid meet">
<metadata>
Created by potrace 1.14, written by Peter Selinger 2001-2017
</metadata>
<g transform="translate(0.000000,512.000000) scale(0.100000,-0.100000)"
fill="#000000" stroke="none">
<path d="M1062 4957 c-18 -89 -35 -173 -37 -187 -3 -14 -7 -36 -10 -50 -3 -14
-8 -36 -10 -50 -3 -14 -12 -61 -21 -105 -8 -44 -17 -91 -20 -105 -2 -14 -17
-90 -33 -170 -41 -203 -92 -460 -97 -490 -3 -14 -13 -68 -24 -120 -10 -52 -21
-108 -24 -125 -3 -16 -21 -109 -40 -205 -19 -96 -37 -188 -40 -205 -3 -16 -8
-41 -11 -55 -3 -14 -12 -59 -20 -100 -8 -41 -17 -86 -20 -100 -3 -14 -8 -41
-11 -60 -3 -19 -8 -44 -11 -55 -3 -11 -7 -29 -9 -40 -1 -11 -25 -137 -54 -280
-29 -143 -54 -269 -56 -280 -2 -11 -29 -148 -60 -305 -31 -157 -58 -295 -60
-307 -2 -13 -6 -33 -8 -45 -7 -36 -118 -591 -121 -608 -2 -8 -27 -134 -55
-280 -29 -146 -53 -272 -55 -280 -26 -131 -65 -334 -65 -342 0 -10 34 -9 220
7 66 5 185 16 230 20 25 3 74 7 110 10 36 3 83 7 105 10 22 2 72 7 110 10 39
3 90 8 115 10 25 3 74 7 110 10 141 12 186 16 220 20 19 2 69 7 110 10 41 4
95 8 120 10 25 2 74 7 110 10 36 3 85 7 110 10 25 2 79 7 120 10 41 3 86 8
100 10 14 2 68 7 120 10 52 3 106 8 120 10 14 2 63 7 110 11 47 3 99 8 115 10
17 1 64 6 105 9 41 3 89 8 105 9 17 2 66 6 110 10 78 6 180 16 240 22 17 1 64
6 105 9 182 15 265 23 330 30 19 3 76 7 125 10 50 4 101 8 115 10 14 2 61 7
105 10 44 3 96 8 115 10 36 4 145 14 215 20 161 13 195 18 196 29 0 6 2 18 4
26 1 8 6 33 9 55 4 22 11 65 16 95 5 30 11 69 13 85 3 17 12 71 20 120 9 50
18 106 21 125 3 19 8 46 10 60 2 14 10 59 16 100 7 41 14 84 16 95 2 11 11 63
19 115 8 52 17 106 19 120 3 14 19 111 36 215 17 105 33 204 36 220 3 17 7 41
9 55 2 14 6 40 9 58 3 17 8 44 11 60 2 15 22 136 45 269 22 133 43 261 46 285
10 71 11 80 23 143 10 56 15 87 27 160 5 33 19 114 34 203 5 31 12 75 15 97 4
22 13 76 20 120 8 44 17 94 19 110 3 17 12 75 21 130 9 55 18 114 21 130 2 17
9 55 14 85 12 67 14 83 40 240 11 69 22 136 24 150 8 44 45 273 52 315 3 22
17 104 30 183 13 79 24 151 24 161 0 14 -10 18 -52 20 -29 1 -69 4 -88 6 -19
2 -69 6 -110 10 -41 3 -93 7 -115 10 -22 2 -76 7 -120 11 -44 3 -96 7 -115 9
-19 2 -75 7 -125 10 -49 3 -99 8 -110 10 -11 2 -67 7 -125 10 -58 4 -112 9
-121 10 -9 2 -52 6 -95 10 -43 3 -101 8 -129 10 -131 12 -165 15 -238 20 -43
4 -88 8 -100 10 -12 2 -67 6 -122 10 -55 4 -113 8 -130 10 -16 2 -66 6 -110
10 -44 4 -96 8 -115 10 -19 2 -71 6 -115 10 -44 3 -96 8 -115 10 -19 2 -73 7
-120 10 -47 4 -101 8 -120 10 -19 2 -73 6 -120 10 -47 3 -101 8 -120 10 -19 2
-71 7 -115 10 -183 15 -285 24 -345 30 -47 5 -98 9 -240 20 -47 4 -103 9 -125
11 -22 2 -67 6 -100 9 -33 3 -87 7 -121 10 l-60 4 -32 -162z m1597 -732 c5 -5
75 -162 155 -348 80 -186 153 -355 162 -375 9 -20 20 -46 25 -57 65 -149 189
-438 189 -440 0 -3 11 -28 24 -57 13 -29 47 -107 75 -173 29 -66 66 -151 83
-190 17 -38 93 -216 170 -395 77 -179 151 -349 164 -378 13 -29 35 -80 49
-115 14 -34 30 -71 35 -82 28 -60 250 -580 250 -585 0 -4 -106 -6 -236 -6
l-237 1 -53 125 c-29 69 -60 143 -69 165 -19 44 -38 88 -59 138 -8 17 -27 61
-41 97 -15 36 -33 79 -41 96 l-15 31 -754 0 c-533 0 -758 -3 -764 -11 -5 -6
-68 -150 -142 -321 -73 -170 -136 -313 -141 -316 -5 -3 -111 -5 -236 -5 -163
1 -226 4 -225 13 2 9 474 1112 518 1208 7 17 100 230 205 475 105 245 198 459
205 475 7 17 57 131 110 255 53 124 102 239 110 255 7 17 36 84 65 150 63 148
61 143 104 238 20 44 36 83 36 88 0 5 7 20 15 32 14 22 21 23 134 23 66 -1
124 -5 130 -11z"/>
<path d="M2522 3443 c-5 -10 -35 -79 -66 -153 -62 -146 -60 -143 -105 -243
-17 -38 -31 -70 -31 -72 0 -3 -12 -30 -26 -62 -14 -32 -29 -67 -34 -78 -91
-206 -318 -750 -315 -754 7 -6 1164 -5 1171 1 6 7 -46 138 -120 303 -8 17
-114 264 -236 550 -122 286 -224 522 -225 523 -2 2 -8 -5 -13 -15z"/>
</g>
</svg>
